<svg xmlns="http://www.w3.org/2000/svg" fill="none" viewBox="0 0 120 120"><g fill="#fff" clip-path="url(#a)"><path d="M55.017 100.669c-.843-.167-1.827-.842-2.605-1.762-2.925-3.453-5.658-11.677-6.314-18.962-.18-2.122-.154-6.263.064-9.06.296-3.678.373-6.456.206-7.054s-1.228-1.852-2.849-3.338c-3.324-3.067-8.012-5.137-11.6-5.137-2.443 0-5.632 1.06-8.256 2.758-.624.399-2.366 1.646-3.87 2.759-5.01 3.678-8.013 5.15-12.141 5.967-1.331.257-2.148.334-4.636.386L0 67.29l.039-.88.038-.895 2.849-.077c3.55-.103 5.485-.463 8.218-1.556 2.417-.97 4.27-2.083 7.729-4.662 2.771-2.07 4.295-3.08 5.8-3.832 1.408-.714 3.78-1.498 5.15-1.723 1.37-.22 4.244-.09 5.524.244 3.093.816 6.314 2.527 8.828 4.688.399.347.766.636.804.636.18 0 .013-.489-1.138-3.517-2.849-7.427-3.91-11.806-4.051-16.75-.116-3.782.309-6.849 1.408-10.083 1.66-4.92 4.424-7.78 8.79-9.035 3.183-.92 5.826-.74 10.732.753 4.334 1.305 6.044 1.607 8.115 1.37 1.241-.13 1.955-.31 6.9-1.686 4.854-1.356 7.999-1.33 11.426.052 5.022 2.045 7.986 7.44 8.5 15.49.36 5.685-.79 11.272-4.025 19.542-1.073 2.745-1.697 4.514-1.607 4.61.026.039.598-.424 1.254-1.01.662-.598 1.498-1.266 1.877-1.498 1.942-1.254 4.206-1.472 6.07-.572 1.023.508 1.685 1.087 3.653 3.286 3.003 3.363 4.437 4.45 6.578 4.996.907.231 1.447.257 5.774.257H120v1.813h-4.778c-5.15 0-5.825-.064-7.401-.7-1.048-.425-2.707-1.556-3.819-2.579-.489-.45-1.646-1.685-2.553-2.72-2.29-2.591-3.041-3.093-4.61-3.093-.984 0-1.968.322-2.94.958-.751.508-2.835 2.482-4.076 3.897l-.894.997v2.044c0 1.113.052 2.643.129 3.39.424 4.558.399 9.593-.064 12.75-1.048 7.041-3.576 13.774-6.328 16.84-2.565 2.849-5.748 1.969-7.08-1.954-.533-1.556-.957-3.948-1.543-8.526-.829-6.392-1.24-8.687-2.16-11.78-1.177-3.987-2.604-6.045-4.205-6.058-1.113-.025-1.994.766-2.939 2.605-1.518 2.977-2.604 7.587-3.44 14.468-.83 6.9-1.672 10.16-3.016 11.703-.842.945-2.122 1.395-3.273 1.163zm1.761-2.34c1.139-1.1 1.775-3.563 2.605-10.096.65-5.163 1.138-8.05 1.749-10.352 1.659-6.2 3.716-9.06 6.533-9.06 2.707 0 4.803 2.732 6.263 8.153.83 3.054 1.382 6.417 2.135 12.88.488 4.205 1.266 7.246 2.083 8.204.56.65 1.19.881 1.865.676 1.903-.573 4.752-6.109 6.276-12.18 1.305-5.227 1.569-8.892 1.1-15.206-.194-2.669-.27-4.534-.22-5.955.052-1.903.09-2.237.586-4.077.61-2.327.752-2.77 2.122-6.404 3.388-8.944 4.436-13.94 3.986-19.155-.398-4.804-1.633-8.463-3.69-10.977-2.225-2.745-6.566-4.102-10.81-3.401-.675.102-2.655.61-4.398 1.112-4.437 1.267-5.568 1.473-7.832 1.383-1.955-.065-2.81-.22-5.498-1.023-3.704-1.1-4.244-1.24-5.42-1.447-4.437-.765-8.842.791-11.144 3.91-1.267 1.71-2.07 3.575-2.72 6.302-.624 2.617-.83 4.597-.74 7.182.155 4.636 1.049 8.462 3.518 15.079 1.62 4.308 2.47 6.99 2.861 8.931.296 1.408.283 4.65 0 8.411-.508 6.404-.012 11.677 1.634 17.265 1.356 4.675 3.575 9.073 5.009 10.005.79.508 1.517.45 2.148-.154z"/><path d="M109.165 58.893c-.836-.611-.418-.932 3.665-2.797 5.595-2.572 6.591-2.926 6.881-2.444.16.225.289.515.289.643 0 .29-2.701 1.672-7.009 3.601-2.829 1.254-3.311 1.383-3.826.997M104.021 50.79c-.129-.288.032-.9.289-1.35.29-.45 1.254-2.121 2.187-3.729 2.218-3.858 3.118-5.016 3.697-4.79.257.128.482.385.482.61 0 .483-2.025 4.212-4.051 7.395-1.511 2.411-2.218 2.894-2.604 1.865M16.987 45.487c-2.094-3.405-2.844-4.917-2.599-5.18.228-.236.64-.163 1.136.194.795.548 5.81 8.155 6.077 9.167.155.71-.663 1.331-1.258.95-.227-.184-1.748-2.458-3.356-5.131M28.58 45.931c.009-.49.026-2.542.035-4.522.065-5.879.418-7.562 1.487-6.609.399.332.466 1.597.307 4.704-.146 2.312-.288 4.857-.31 5.606-.066 1.294-.118 1.376-.829 1.531-.666.146-.72.111-.69-.71"/></g><defs><clipPath id="a"><path fill="#fff" d="M0 0h120v120H0z"/></clipPath></defs></svg>