<svg xmlns="http://www.w3.org/2000/svg" fill="none" viewBox="0 0 120 120"><g fill="#fff" clip-path="url(#a)"><path d="M47.832 111.659c-.556-.225-4.789-2.655-7.331-4.218-6.838-4.19-13.105-9.155-20.028-15.901l-1.965-1.93-.084-1.02c-.043-.557-.113-1.747-.155-2.628-.099-1.845-.472-7.049-.979-13.373-.197-2.401-.352-4.45-.352-4.563a.217.217 0 0 0-.211-.211c-.198 0-6.655 2.556-12.676 5.014-1.521.627-2.916 1.134-3.085 1.134-.852 0-1.281-1.092-.697-1.69.155-.155 3.099-1.409 6.563-2.79 10.817-4.351 11-4.408 11.712-3.682.197.183.352.443.352.584s.126 1.831.281 3.74c.416 5.288.951 12.661 1.12 15.69.084 1.493.211 2.802.268 2.9.056.114 1.295 1.325 2.746 2.726 6.937 6.62 13.134 11.331 20.648 15.704 3.655 2.134 4.162 2.373 4.563 2.148.768-.401 4.704-3.38 5.218-3.951.697-.753.98-1.464 3.127-7.9 1.845-5.529 1.958-5.754 3.014-5.754.965 0 1.324.415 2.007 2.33 1.789 4.93 3.465 8.754 4.176 9.578.95 1.077 4.704 3.225 5.599 3.197.908-.028 7.45-2.148 8.936-2.887 1.162-.599 5.697-5.486 8.697-9.394l.67-.867 4.633-2.288c2.556-1.268 4.789-2.43 4.958-2.57.267-.212.352-.458.443-1.296.268-2.317.881-9.352 1.31-15.162.268-3.394.542-6.282.627-6.437.084-.14.324-.352.542-.43.683-.295.993-.182 10.986 4.106 2.915 1.24 5.429 2.303 5.598 2.36.529.154.895.626.895 1.133 0 .528-.43 1.05-.881 1.05-.154 0-1.197-.402-2.316-.895-2.05-.908-10.345-4.465-12.007-5.162-.486-.211-.909-.352-.937-.324-.07.07-.183 1.352-.753 8.472-.599 7.387-1.12 12.69-1.31 13.246-.099.338-.366.627-.768.909-.542.366-5.74 2.986-8.556 4.324-.993.472-1.162.612-2.289 2.007-4.049 4.957-7.19 8.288-8.415 8.95-1.704.909-9.028 3.226-10.19 3.226-1.465 0-6.324-2.902-7.345-4.381-.613-.908-1.993-4.021-3.211-7.274-.514-1.38-.965-2.542-.993-2.57-.07-.085-.282.485-1.12 3.182-.908 2.845-1.93 5.726-2.655 7.465l-.514 1.225-1.944 1.479c-3.507 2.683-5.246 3.866-5.584 3.782-.028 0-.183-.056-.352-.127z"/><path d="M44.191 101.681a11 11 0 0 1-1.606-.529c-4.633-2.148-9.169-10.845-10.971-21.035-.613-3.493-.697-5.457-.585-14.38.07-5.133-.028-6.281-.782-8.936-.443-1.564-1.549-3.81-2.457-4.986-2.007-2.627-4.747-4.26-7.148-4.26-1.887 0-2.873.64-5.275 3.352-3.978 4.507-5.887 6.183-8.542 7.492-2.317 1.148-5.288 2.035-6.112 1.831-.486-.112-.838-.781-.655-1.253.183-.486.598-.711 1.887-.993 2.092-.444 4.592-1.55 6.211-2.76 1.106-.81 2.887-2.571 4.507-4.423 3.07-3.528 4.162-4.45 5.916-5.042.781-.254 1.12-.296 2.33-.226 2.684.127 4.79 1.17 7.134 3.514 2.514 2.514 3.923 5.374 4.719 9.564.295 1.535.31 1.915.267 8.866-.042 7.478.028 9.084.528 12.035 1.183 6.95 3.712 13.302 6.909 17.323 1.591 1.994 3.197 2.916 5.303 3.057 3.598.239 6.042-1.733 7.478-6.028.867-2.585 1.395-5.374 2.289-12.141 1.035-7.718 1.493-10.12 2.275-11.64.295-.613.514-.839 1.035-1.106.796-.402 1.408-.352 2.063.211 1.211 1.021 1.676 2.93 3.141 13.232.866 6.057 1.225 8 1.958 10.528 1.38 4.831 3.324 6.711 6.88 6.711 2.091 0 3.408-.612 5.148-2.4 3.993-4.135 7.507-13.72 8.288-22.585.099-1.197.127-2.902.07-4.676-.239-7.578-.267-9.113-.098-10.472.43-3.64 1.493-6.767 3.127-9.211.88-1.31 2.803-3.14 3.936-3.725 1.677-.867 2.775-1.134 4.508-1.064 1.337.042 1.591.099 2.471.5 1.366.655 2.05 1.197 4.747 3.866 3.824 3.782 5.612 5.162 8.514 6.564a23.2 23.2 0 0 0 4.676 1.676c1.077.281 1.507.514 1.676.993.183.471-.169 1.148-.641 1.253-.416.113-2.218-.338-4.035-.993-4.261-1.549-6.669-3.197-11.31-7.746-1.606-1.578-3.253-3.07-3.641-3.324-1.077-.67-2.345-.95-3.584-.754-1.578.24-2.873.965-4.289 2.388-1.493 1.507-2.387 3-3.169 5.317-1.091 3.21-1.211 4.915-.965 13.676.127 4.704.043 6.492-.486 9.76-1.436 9.028-5.486 17.908-9.605 21.105-1.718 1.324-3.282 1.845-5.486 1.831-2.36-.028-4.035-.725-5.697-2.401-2.486-2.472-3.627-6.465-5.232-18.148-.641-4.633-1.078-7.162-1.451-8.584-.366-1.324-.472-1.535-.754-1.423-.457.183-.936 2.585-1.845 9.31-1.422 10.5-2.274 14.197-3.95 17.098-1.958 3.381-5.768 5.029-9.634 4.191z"/><path d="M45.585 96.807c-2.401-.781-5.176-5.246-7.26-11.669-1.916-5.929-2.416-10.359-2.106-18.943.324-9.662.183-10.648-2.76-18.394-3.028-7.958-4.134-12.24-4.507-17.437-.458-6.281 1.225-12.873 4.274-16.682 2.064-2.57 5.014-4.409 8.205-5.106.88-.197 1.507-.24 3-.169 2.246.084 3.697.43 7.732 1.83 3.253 1.149 4.958 1.508 7.007 1.508 2.063 0 3.07-.225 7.676-1.775 4.288-1.422 5.725-1.746 7.971-1.746 5.712 0 10.845 3.352 13.317 8.711 2.486 5.373 2.902 12.591 1.17 20.31-.487 2.148-1.818 6.155-3.451 10.345-2.817 7.274-3.17 9.07-2.888 14.95.395 8.585.338 11.416-.352 15.408-1.211 7.148-4.563 15.134-7.387 17.599-.993.866-1.718 1.169-2.733 1.169-1.063 0-1.633-.24-2.485-1.035-1.662-1.564-2.416-4.409-3.451-13.05-.796-6.725-1.465-10.12-2.528-12.964-1.225-3.268-2.972-5.472-4.31-5.472-1.24 0-2.944 2.007-4.148 4.887-1.211 2.93-1.817 6.014-2.83 14.514-1.036 8.641-2.022 11.57-4.353 12.937-.74.43-1.944.542-2.803.267zm2.275-2.345c1.479-1.281 2.078-3.852 3.225-13.718.88-7.577 1.803-11.296 3.641-14.584.923-1.634 2.599-3.338 3.711-3.74 1.007-.38 1.55-.394 2.514-.028 1.409.528 3 2.275 4.134 4.55 1.76 3.507 2.613 7.549 3.711 17.506.74 6.698 1.536 9.352 3.028 10.134.5.268.867.254 1.48-.07 1.063-.543 2.175-2.12 3.584-5.092 1.183-2.472 1.746-4.05 2.5-6.922 1.634-6.395 1.859-9.17 1.436-18.007-.21-4.303-.098-8.085.296-9.923q.601-2.77 3.028-8.992c1.705-4.338 2.444-6.655 3.057-9.507.626-2.916.795-4.564.81-7.789.014-8.838-3.367-14.993-9.353-17.028-3.281-1.12-6.21-.824-11.852 1.225-1.162.416-2.788.937-3.626 1.162-1.366.352-1.733.395-3.88.395-2.93 0-3.599-.141-8.029-1.606-4.366-1.45-5.07-1.606-7.4-1.606-1.62 0-2.022.043-2.86.339-2.106.71-3.866 1.845-5.33 3.408-1.592 1.704-2.67 3.711-3.452 6.479-.767 2.669-.992 4.422-.978 7.577.014 4.831.64 8.042 2.683 13.746 1.324 3.683 2.077 5.726 2.288 6.141.324.627 1.324 3.754 1.634 5.092.74 3.112.852 5.795.57 12.366-.352 8.084.085 12.535 1.79 18.408 1.049 3.64 3.45 8.542 4.802 9.796.937.88 2.05.992 2.831.295zM25.276 87.913c-.782-.415-1.226-1.183-1.226-2.12 0-1.21.627-2.091 1.761-2.471 1.021-.338 2.345.253 2.86 1.253.309.599.38 1.662.126 2.134-.24.444-.838 1.077-1.268 1.296-.528.281-1.62.24-2.246-.099zM91.514 84.286c-1.436-.725-1.802-2.528-.767-3.767.472-.557 1.106-.824 1.944-.824 1.337 0 2.288.894 2.387 2.274.14 1.902-1.86 3.198-3.556 2.317zM25.332 77.068c-.486-.267-.993-1.007-.993-1.465 0-.5.416-1.21.866-1.492 1.183-.726 2.627.056 2.627 1.422 0 .627-.268 1.091-.824 1.465-.57.394-1.05.401-1.676.07M94.69 74.639c-1.267-.641-1.591-2.219-.668-3.268.781-.894 2.063-.965 2.971-.183 1.197 1.05.923 2.817-.542 3.493-.74.338-1.021.338-1.76-.042M24.163 68.526c-.599-.183-1.282-.768-1.55-1.296a2.514 2.514 0 0 1 2.29-3.584c1.049 0 1.802.486 2.246 1.465.338.71.338 1.38 0 2.12-.472 1.049-1.887 1.661-2.986 1.295M92.085 65.737c-1.296-.781-1.106-2.683.338-3.295.584-.254.936-.254 1.521.028.57.281 1.035.979 1.035 1.591 0 1.493-1.634 2.444-2.887 1.676z"/></g><defs><clipPath id="a"><path fill="#fff" d="M0 0h120v120H0z"/></clipPath></defs></svg>