<svg xmlns="http://www.w3.org/2000/svg" fill="none" viewBox="0 0 120 120"><path fill="#fff" d="M113.906 108.794c-1.368-.381-1.906-.817-4.982-3.9l-2.981-2.981-1.117.749c-1.272.864-2.967 1.497-4.634 1.721-1.41.198-87.267.198-88.962.014-3.022-.34-5.567-1.552-7.616-3.614-1.75-1.736-2.852-3.798-3.362-6.302C.014 93.35 0 91.935 0 58.13c0-24.516.04-35.467.143-36.181.265-1.879 1.17-4.234 2.246-5.806.646-.96 2.164-2.416 3.22-3.103 1.156-.735 2.347-1.26 3.851-1.681l1.117-.3h44.858c48.84 0 45.56-.054 47.738.735 3.668 1.327 6.132 4.125 7.289 8.263l.34 1.245.041 35.8.027 35.786 4.111 4.152c4.451 4.492 4.744 4.859 4.968 6.384.327 2.3-.959 4.519-3.035 5.24-.864.314-2.164.368-3.008.13m2.13-2.049c.619-.17 1.511-.946 1.763-1.524.252-.606.211-1.593-.096-2.246-.183-.422-2.361-2.696-8.174-8.542-4.362-4.376-8.119-8.174-8.371-8.405-.524-.525-.987-.722-1.382-.606-.142.054-.973.776-1.81 1.6-1.3 1.258-1.552 1.578-1.552 1.905 0 .34 1.014 1.409 8.052 8.473 4.417 4.452 8.249 8.277 8.5 8.501.974.892 1.947 1.157 3.063.844zm-14.96-4.846c1.13-.286 2.389-.905 2.852-1.395l.3-.327-3.403-3.443c-6.596-6.664-6.085-6.071-6.453-7.317-.183-.62-.422-.932-1.551-2.103-.735-.762-1.382-1.416-1.443-1.457-.055-.054-.497.184-.987.497-1.246.844-4.07 2.178-5.554 2.655-2.443.775-4.043 1-7.133.987-2.484 0-2.926-.041-4.464-.368-5.52-1.157-9.828-3.689-13.449-7.922-2.756-3.22-4.608-7.249-5.35-11.666-.326-1.92-.326-6.132-.013-7.95 1.211-6.962 5.057-12.883 10.617-16.395 3.022-1.906 5.949-3.022 9.14-3.505 1.71-.265 5.323-.252 7.093.014 3.26.47 6.465 1.735 9.392 3.688 1.456.974 4.138 3.458 5.309 4.914 2.144 2.682 3.9 6.282 4.587 9.38.803 3.654.803 8.22 0 11.72-.511 2.272-1.824 5.349-3.11 7.302-.579.878-.647 1.048-.484 1.198 2.192 2.09 3.09 2.838 3.39 2.838.789.013 1.429.497 3.9 3.008 1.368 1.395 2.913 2.913 3.443 3.39l.946.85-.027-34.39-.041-34.405-.285-1.048c-.171-.579-.565-1.6-.906-2.273-1.129-2.3-3.26-4.036-5.832-4.744l-.987-.28H55.762c-44.321 0-44.825 0-45.846.266-2.797.708-5.097 2.6-6.438 5.323-.694 1.429-1.048 2.77-1.232 4.716-.102 1-.13 12.299-.102 35.548l.04 34.091.287 1.049c.17.578.578 1.613.918 2.3.524 1.062.79 1.43 1.865 2.498.974.973 1.511 1.381 2.328 1.797.932.483 2.341.959 3.335 1.129.184.028 20.31.068 44.743.082 43.824.014 44.429.014 45.423-.252zM81.448 87.525c1.579-.286 4.322-1.198 5.662-1.851 1.443-.735 3.628-2.192 4.703-3.179 2.403-2.164 4.451-5.111 5.677-8.18 3.477-8.787.946-19.166-6.146-25.094-2.981-2.485-5.82-3.86-9.672-4.69-1.551-.34-6.384-.34-7.935 0-2.839.606-5.534 1.722-7.793 3.22-1.879 1.245-3.9 3.178-5.323 5.084-1.994 2.667-3.573 6.479-4.056 9.814-.265 1.749-.265 4.9-.014 6.568 1.062 7.119 5.493 13.32 11.707 16.436 1.919.96 5.111 1.879 7.343 2.117 1.062.102 4.771-.04 5.847-.238zm15.34-1.736c.66-.619 1.212-1.198 1.212-1.286 0-.197-2.457-2.484-2.6-2.416-.054.027-.592.565-1.198 1.198L93.1 84.442l.449.483c.946 1.035 1.892 1.994 1.96 1.994.04 0 .62-.51 1.286-1.13z"/><path fill="#fff" d="M41.68 90.465c-.51-.13-1.13-.34-1.382-.47-2.007-1.027-3.123-2.851-3.123-5.097 0-3.022 1.864-5.622 4.988-6.922.633-.265.946-.3 2.498-.313 1.709 0 1.797.014 2.627.408 1.117.524 2.342 1.668 2.88 2.668 1.395 2.614.789 6.017-1.43 8.065-1.824 1.695-4.506 2.342-7.051 1.668zm3.784-2.103c1.511-.47 2.784-1.708 3.206-3.076.265-.851.252-2.233-.014-3.022-.285-.83-1.313-1.947-2.144-2.3-3.124-1.341-7.064 1.088-7.343 4.519-.096 1.286.143 1.96 1.027 2.851.606.593.906.79 1.593 1.014 1.13.354 2.586.354 3.675.014M22.712 76.356c-.878-.313-1.695-1.061-2.723-2.498-.497-.694-.79-.864-2.389-1.395-1.933-.633-3.035-1.524-3.77-3.035-.579-1.198-.762-2.09-.749-3.669 0-1.613.252-2.668.919-4.056.579-1.184 2.008-2.723 3.11-3.376 1.736-1.014 4.24-1.484 6.555-1.245 2.021.21 3.362.891 4.492 2.327 2.756 3.458 3.47 4.608 3.756 6.228.409 2.205-.408 4.478-2.273 6.397a33 33 0 0 0-1.919 2.233c-.905 1.198-1.776 1.906-2.613 2.144-.66.183-1.825.156-2.403-.055zm2.375-2.164c.184-.116.538-.51.79-.864.251-.354.905-1.117 1.442-1.695 1.96-2.117 2.362-2.757 2.628-4.165.17-.865 0-1.906-.45-2.77-.183-.34-.864-1.341-1.538-2.233-2.328-3.103-2.43-3.165-5.111-3.233-2.88-.068-4.547.436-5.915 1.797-1.932 1.933-2.43 5.751-1.027 7.936.524.83 1.089 1.184 2.613 1.681 1.906.62 2.573 1.116 3.73 2.865.68 1.014 1.946 1.328 2.824.68zM42.953 63.602c-1.681-.749-2.43-2.798-1.654-4.465.524-1.157 1.552-1.797 2.838-1.797 1.3-.014 2.375.694 2.893 1.892.619 1.443.129 3.192-1.157 4.111-.484.327-.708.395-1.511.422-.647.027-1.09-.027-1.41-.157zm2.144-2.178c.79-.851.156-2.219-1.028-2.219-.184 0-.51.17-.749.381-.38.327-.435.47-.422.987.014.667.198.96.776 1.212.524.238.974.129 1.416-.354zM39.448 48.363c-.381-.102-1.232-.47-1.906-.817l-1.225-.633-2.73.041c-2.232.041-2.878 0-3.477-.17-3.335-.973-5.282-4.192-4.621-7.698.224-1.184.932-2.43 2.116-3.716 1.368-1.483 1.763-2.3 1.96-4.083.313-2.668 1.396-4.322 3.478-5.323 1.6-.762 3.288-.762 5.336.014 1.525.578 2.314.565 3.349-.014 1.946-1.102 2.681-1.415 3.614-1.579 2.273-.38 4.73.565 6.48 2.512.707.79 1.694 2.743 1.905 3.77.197.974.17 2.852-.055 3.69-.496 1.878-1.579 3.15-3.491 4.15-2.076 1.063-2.403 1.498-3.335 4.336-.721 2.192-1.246 3.179-2.192 4.097-1.443 1.41-3.321 1.92-5.186 1.416zm2.954-2.26c.483-.224.843-.524 1.197-1 .667-.905.681-.933 1.382-3.036.987-2.953 1.81-4.022 4.138-5.267.667-.354 1.395-.851 1.613-1.103 2.39-2.723.776-7.827-2.865-9.08-1.58-.55-2.954-.285-4.771.892-1.722 1.13-2.906 1.225-5.309.409-1.368-.463-1.722-.538-2.389-.47-1.538.116-2.892 1.028-3.47 2.328-.144.326-.328 1.13-.41 1.776-.278 2.3-.68 3.178-2.313 5.002-.633.708-1.273 1.58-1.43 1.947-1.034 2.314-.054 5.057 2.192 6.057l.817.368 2.361-.068c3.022-.095 3.505-.014 5.152.83 1.947 1 2.73 1.076 4.098.422zM14.579 43.844c-1.58-.483-2.458-1.824-2.342-3.546.116-1.565.905-2.539 2.43-2.981 1.409-.409 3.063.313 3.743 1.64 1.157 2.233-.435 5.016-2.851 4.989-.354 0-.803-.054-.987-.102zm1.694-2.035c.592-.313.83-1.103.538-1.838-.143-.394-.85-.864-1.286-.864-.51 0-1.09.381-1.287.85-.286.709-.238 1.09.266 1.593.497.497 1.116.592 1.776.266zM73.206 35.751c-2.178-.605-3.444-1.721-4.193-3.688-.85-2.206-.17-4.914 1.627-6.5 3.178-2.797 8.276-1.47 9.617 2.511.367 1.103.38 2.641.013 3.812-.51 1.626-1.551 2.77-3.192 3.546-1.075.496-2.756.646-3.872.326zm2.892-2.164c.803-.3 1.668-1.075 2.09-1.878.238-.45.3-.763.3-1.668 0-1.225-.212-1.79-1.001-2.681-1.035-1.198-3.104-1.566-4.608-.83a3.93 3.93 0 0 0-1.865 1.918c-.395.851-.381 2.498.014 3.233.96 1.79 3.15 2.614 5.07 1.906M80.406 83.203c-.238-.708-.102-.83 1.212-1.143.667-.157 1.259-.3 1.327-.313.082 0 .238.224.381.496.313.667.198.79-1.143 1.13-1.457.368-1.6.354-1.777-.17M62.833 74.151c-.252-.313-.79-1.47-1.143-2.47-.66-1.81-1.09-5.241-.708-5.622.17-.17 1.13-.211 1.368-.055.082.055.184.62.238 1.273.143 1.75.436 2.981 1.09 4.635.326.817.55 1.565.51 1.667-.157.422-1.144.83-1.355.565zM93.882 68.175c-.054-.04-.095-.776-.095-1.626 0-1.41.027-1.566.252-1.695.381-.197.891-.156.987.082.04.115.082.816.082 1.565s-.041 1.443-.082 1.565c-.082.211-.96.3-1.144.116zM61.52 63.445c-.51-.102-.592-.327-.436-1.232.381-2.076 1.368-4.322 2.88-6.568 1.313-1.973 3.967-4.587 4.648-4.587.285 0 .878.749.878 1.116 0 .184-.143.395-.34.524-.668.436-2.587 2.362-3.35 3.376-1.286 1.709-2.361 4.111-3.008 6.65-.102.408-.238.592-.47.68a1.4 1.4 0 0 1-.421.116 6 6 0 0 0-.381-.082zM71.865 50.452c-.3-.394-.368-1-.102-1.211.238-.197 1.708-.647 2.954-.892 1.354-.265 1.497-.183 1.442.776l-.04.66-1.314.3a24 24 0 0 0-1.892.497c-.735.279-.735.279-1.048-.13M82.217 50.337c-.266-.096-1.076-.28-1.824-.409-1.511-.265-1.736-.449-1.498-1.259.103-.38.184-.435.62-.47.844-.067 4.165.709 4.362 1.028.041.068-.04.395-.183.722-.225.497-.313.592-.633.578-.198 0-.579-.081-.844-.184z"/></svg>