<svg xmlns="http://www.w3.org/2000/svg" fill="none" viewBox="0 0 120 120"><path fill="#fff" d="M37.792 107.678c-7.89-2.772-12.368-8.707-13.15-17.485-.39-4.478-1.243-9.702-1.776-10.981-1.706-4.123-4.691-6.717-9.382-8.174-2.168-.71-3.128-.782-5.829-.64-1.776.071-4.086.427-5.117.782-1.457.498-1.955.569-2.31.213-.64-.64.107-1.563 1.741-2.132 2.026-.71 8.316-.924 10.768-.39 2.31.497 6.184 2.38 7.854 3.802 1.564 1.315 3.376 4.158 4.194 6.716.39 1.173.96 4.336 1.315 7.073.995 8.35 2.096 11.514 5.046 14.748 2.381 2.594 4.975 4.087 8.707 5.046 2.7.711 3.34.746 5.402.391 5.686-.959 11.052-5.046 12.936-9.88.817-2.06 1.847-7.498 1.847-9.843 0-3.021.818-7.286 1.706-9.063 1.102-2.132 3.234-3.98 6.29-5.437 3.27-1.6 5.331-2.168 11.728-3.27 6.504-1.137 20.363-1.137 27.542 0 5.509.853 12.51 2.56 12.687 3.092.036.214-.035.604-.249.889-.284.426-.604.462-2.381.07-11.656-2.593-15.316-3.055-23.917-3.055-16.951.035-28.821 3.766-30.562 9.595-.214.782-.64 4.016-.924 7.25-.782 9.133-2.275 13.006-6.54 16.809-5.081 4.584-11.514 5.97-17.626 3.874"/><path fill="#fff" d="M33.492 89.802c-2.63-.782-4.443-3.767-4.905-8.138-.142-1.066-.604-4.656-1.066-7.996-2.026-14.535-2.061-17.307-.355-19.76 2.097-2.985 4.442-3.518 15.388-3.66l7.89-.071.746-1.386c1.883-3.59 4.05-6.681 5.757-8.174 2.132-1.883 7.178-4.442 9.275-4.726 1.813-.213 2.061-.427 14.25-12.545 5.296-5.26 9.88-9.56 10.236-9.56.39 0 .604.284.604.853 0 .64-3.554 4.3-14.784 15.352-14.073 13.825-16.845 16.881-18.586 20.293-1.03 2.025-3.305 8.955-3.127 9.453.106.248.675-.675 1.314-2.061 1.848-4.016 4.62-8.316 6.575-10.27 2.345-2.382 10.093-6.256 18.124-9.099 3.91-1.386 9.063-3.34 17.414-6.574 3.909-1.493 8.245-3.128 9.595-3.625 2.559-.924 3.803-1.635 2.275-1.315-7.108 1.493-27.116 6.468-29.106 7.214-.924.356-2.239 1.066-2.914 1.6-2.772 2.096-2.772.604 0-2.382 13.469-14.57 18.977-20.47 19.724-21.145.888-.853 2.025-.96 2.274-.213.142.39-4.833 5.9-13.327 14.82-2.416 2.523-4.3 4.655-4.229 4.761.107.072 1.102-.106 2.24-.426 6.645-1.741 26.51-6.539 27.896-6.752l1.635-.249.391 1.457c.178.817.249 1.528.071 1.635-.142.07-2.452.995-5.188 2.061-2.701 1.066-9.24 3.59-14.535 5.65a3666 3666 0 0 1-15.815 6.149c-12.047 4.655-16.063 7.25-18.622 12.19-.497.923-.533 1.42-.213 2.487.71 2.559.32 7.854-1.244 16.952-.32 1.776-.853 5.33-1.208 7.925-.782 5.508-1.706 7.463-4.123 8.742-1.315.71-2.06.746-10.306.817-4.868.036-9.417-.106-10.021-.284m20.15-2.63c1.563-1.457 1.67-1.741 2.132-5.153.213-1.67.924-6.468 1.6-10.661 1.279-8.139 1.883-14.57 1.385-14.57-.178 0-.853 1.03-1.492 2.274-1.564 3.02-2.204 3.553-3.803 3.27-1.6-.32-1.6-.854.035-5.58.996-2.879 1.173-3.696.782-3.91-.924-.604-3.518-.71-12.367-.604-8.849.107-9.098.142-10.803.995-2.737 1.386-3.234 2.31-3.163 5.793.035 1.6.39 5.544.782 8.778.39 3.234.995 8.103 1.314 10.839 1.067 9.56 1.386 9.808 14.074 9.666l8.422-.07zm3.589-39.34c1.386-2.417 2.772-4.123 5.047-6.326 1.705-1.635 3.091-3.128 3.091-3.27 0-.426-3.483 1.066-5.153 2.204-2.239 1.528-4.797 4.549-6.325 7.392l-1.351 2.523 1.173.355c.64.178 1.28.355 1.386.355.106.036 1.066-1.457 2.132-3.233"/></svg>