<svg xmlns="http://www.w3.org/2000/svg" fill="none" viewBox="0 0 120 120"><g fill="#fff" clip-path="url(#a)"><path d="M59.257 119.197c-.11-.332-.221-3.545-.221-7.2v-6.61h.886c.775 0 .886.222 1.108 1.957.295 2.474.295 11.078 0 11.853-.111.333-.517.591-.886.591-.37 0-.776-.258-.887-.591M38.69 114.028c-.48-.591-.702-.259 4.062-5.945 3.877-4.616 4.615-5.207 5.095-3.988.222.627-1.883 3.508-5.538 7.643-2.475 2.77-2.955 3.065-3.62 2.29M77.942 111.517c-4.838-5.465-6.315-7.976-4.69-7.976.517 0 8.678 9.305 8.678 9.933 0 .221-.296.554-.665.738-.554.296-1.108-.147-3.323-2.695M52.426 98.74c-10.45-1.735-22.377-6.83-31.054-13.256-4.358-3.212-11.817-10.82-14.143-14.438C.841 61.15-1.116 55.722.583 52.473c1.255-2.437 5.206-7.238 9.49-11.521 7.126-7.127 15.877-13.22 23.853-16.69 7.865-3.398 14.586-3.582 21.786-.628 3.582 1.477 5.982 1.403 10.192-.333 6.905-2.806 11.89-2.584 20.641.924 3.25 1.292 4.948 2.252 9.97 5.612 7.607 5.022 14.032 10.82 19.128 17.208 3.249 4.024 4.357 6.203 4.357 8.419 0 4.615-6.573 15.988-13.404 23.189-4.727 4.948-8.013 7.57-13.626 10.893C79.862 97.3 64.575 100.77 52.426 98.74m18.795-2.732c5.207-1.219 11.853-3.582 15.989-5.613 12.296-6.13 22.709-16.616 28.95-29.171 1.957-3.988 2.289-6.314 1.107-8.493-1.033-2.03-7.791-9.859-10.819-12.592-11.447-10.376-23.595-16.727-31.977-16.727-1.662 0-3.471.406-7.2 1.662-5.872 1.994-7.681 2.105-11.632.701-6.906-2.437-6.98-2.437-10.266-2.252-8.197.517-16.8 4.726-27.546 13.404-7.496 6.056-14.734 13.958-15.62 17.06-.554 1.92 0 4.061 2.105 8.16 4.505 8.788 10.376 15.73 18.094 21.49 8.936 6.61 19.2 11.115 29.614 12.925 5.502.96 13.81.738 19.201-.554"/><path d="M52.574 83.712c-3.065-.37-10.08-2.253-14.032-3.693-15.989-5.982-31.83-17.097-33.824-23.78-.406-1.292-.37-1.55.517-2.88 1.219-1.846 3.397-3.582 7.09-5.65 16.949-9.564 35.78-14.327 51.77-13.22 11.816.85 21.084 2.955 31.423 7.054 10.229 4.098 17.872 8.714 19.46 11.816 1.329 2.51.074 4.985-5.022 9.97-9.785 9.527-26.032 17.466-41.467 20.235-2.031.37-13.367.48-15.915.148m12.924-1.957c.11-.185-.37-1.145-1.034-2.105-1.551-2.179-2.216-3.877-3.213-8.198-.443-1.846-.96-3.434-1.144-3.581-.185-.111-.333-.111-.333-.037 0 .073-.517 2.141-1.144 4.541-1.219 4.69-1.958 6.389-3.471 8.198-.517.59-.924 1.219-.924 1.33 0 .369 11.004.258 11.263-.148m-12.74-1.699c1.588-1.366 2.77-3.84 4.062-8.714 1.403-5.207 1.773-6.13 2.622-6.61 1.44-.739 1.957.148 3.766 6.13 2.548 8.419 4.21 10.45 8.16 10.043 2.807-.295 12.703-3.655 17.467-5.945 5.354-2.584 10.228-5.465 14.105-8.345 4.394-3.25 9.232-8.013 10.081-9.859.628-1.44.665-1.662.111-2.696-1.034-1.957-6.204-5.206-14.438-8.973-7.496-3.434-21.934-7.643-26.439-7.68-4.542-.074-6.683 2.806-9.6 12.96-1.293 4.506-1.7 5.097-3.14 4.58-1.107-.37-1.107-.333-3.1-7.349-1.773-6.203-2.881-8.05-5.687-9.49-1.773-.923-3.14-.923-7.644.074-9.416 2.068-16.949 4.8-25.737 9.232-6.72 3.397-10.229 5.797-10.598 7.237-.517 2.031 2.326 5.65 7.791 9.933 8.013 6.24 16.838 10.93 26.845 14.18 8.235 2.695 9.527 2.843 11.373 1.292m8.567-32.125c1.219-4.69 3.25-8.973 4.985-10.487l1.256-1.108h-7.422c-4.062 0-7.386.074-7.386.185 0 .11.554.701 1.219 1.292 1.957 1.699 3.582 5.465 5.428 12.481.222.85.517 1.55.665 1.55.147 0 .701-1.772 1.255-3.913M42.345 11.744C38.431 6.98 37.73 5.688 39.06 5.688c.48 0 1.883 1.33 3.951 3.692 3.988 4.58 5.096 6.093 4.764 6.61-.628 1.071-1.773.185-5.429-4.246M72.477 15.88c-.185-.518 5.723-8.346 7.496-9.934.701-.59.738-.59 1.329.037.59.628.406.923-2.917 5.096-1.92 2.4-3.803 4.616-4.099 4.874-.812.59-1.55.554-1.81-.074M59.257 14.328c-.11-.332-.221-3.434-.221-6.979 0-5.39.074-6.461.59-6.868.518-.406.665-.369 1.108.222.702.923.739 13.109.074 13.773-.627.628-1.292.554-1.55-.148"/></g><defs><clipPath id="a"><path fill="#fff" d="M0 0h120v120H0z"/></clipPath></defs></svg>