<svg xmlns="http://www.w3.org/2000/svg" fill="none" viewBox="0 0 120 120"><path fill="#fff" d="M56.965 114.821c-5.075-3.408-8.192-5.872-8.627-6.815-.327-.725-.725-1.015-1.378-1.015-1.848 0-2.428-1.558-.87-2.247.943-.435.943-.508.761-2.9-.108-1.377-.326-2.646-.434-2.827-.11-.218-.943-.363-1.85-.363-2.065 0-2.029-.58.073-1.486 1.595-.725 1.632-.797 1.45-2.066-.108-.725-.29-2.139-.398-3.081l-.218-1.776-1.377.253c-1.124.182-1.45.11-1.632-.435-.29-.76.617-1.558 1.813-1.558.471 0 .906-.109 1.015-.29.072-.145-.036-1.595-.254-3.263l-.399-2.972-1.45.109c-1.268.072-1.486-.036-1.486-.653 0-.543.363-.797 1.414-1.087l1.414-.326-.254-3.081c-.109-1.704-.326-3.154-.435-3.263s-.508 0-.87.254c-1.015.616-2.175.544-2.429-.145-.29-.797.798-1.595 2.175-1.595h1.088l-.254-2.211c-.109-1.232-.218-2.646-.218-3.081 0-.761-.18-.87-1.522-.87-2.465 0-2.537-.145-2.574-4.495l-.036-3.842h-1.16c-1.885 0-3.226-1.45-5.22-5.691-1.74-3.589-1.92-3.806-3.552-4.567-2.138-.943-5.183-.943-7.394 0-1.631.76-3.263 2.428-8.519 8.772-3.552 4.313-5.836 6.198-9.025 7.43-3.009 1.124-3.625 1.16-4.133.254-.398-.797-.362-.87 1.631-1.486 4.205-1.341 6.706-3.298 10.766-8.482 5.872-7.467 8.12-9.098 12.614-9.026 1.487.037 3.19.218 3.77.472.58.217 1.088.326 1.16.253.073-.072-.58-2.356-1.486-5.038-2.211-6.815-3.081-11.31-3.081-16.203 0-12.034 4.785-18.921 14.137-20.371 3.624-.544 5.944-.218 12.215 1.74 4.712 1.486 5.764 1.703 8.627 1.703 2.9 0 3.77-.181 7.649-1.486 5.8-1.994 8.264-2.429 11.563-2.175C86.47 4.373 91.87 8.47 93.72 14.45c2.356 7.54 1.849 14.68-1.812 26.171-.798 2.465-1.45 4.64-1.45 4.821s.362.109.834-.109c.434-.253 2.03-.435 3.588-.435 4.857.073 6.706 1.305 12.071 8.084 4.531 5.763 7.394 8.156 11.2 9.388 1.414.435 1.849.761 1.849 1.305 0 .616-.217.725-1.341.689-3.299-.11-8.011-3.734-13.339-10.295-4.205-5.183-5.583-6.452-7.794-7.068-1.486-.435-2.247-.471-3.625-.181-3.77.833-4.023 1.087-6.017 5.22-1.957 4.132-2.936 5.183-5.11 5.509l-1.378.254v7.54l-1.269.543c-.688.254-1.595.507-1.993.507-.508 0-.725.254-.762.834 0 .435-.145 1.994-.29 3.444l-.253 2.682 1.196-.181c.906-.145 1.268-.036 1.558.471.435.797-.144 1.341-1.776 1.667-1.268.254-1.305.4-1.667 4.242l-.254 2.428 1.45-.217c.942-.145 1.523-.073 1.704.217.362.58-.87 1.813-1.849 1.813-.435 0-1.051.217-1.341.507-.58.616-1.196 5.582-.725 6.053.181.182.834.182 1.45 0 1.015-.29 1.196-.253 1.377.4.326.905.073 1.123-1.74 1.558-1.63.398-1.594.253-2.175 4.966l-.217 1.703 1.305.11c.725.072 1.377.29 1.45.507.217.652-.943 1.595-1.921 1.595-1.051 0-1.595 1.123-1.595 3.262 0 2.827-.906 4.168-4.676 6.996-7.503 5.618-7.902 5.727-11.418 3.371m8.373-3.661c4.894-3.553 5.908-4.857 5.908-7.576v-1.776l-1.16.217c-3.117.58-20.008 4.277-20.153 4.422-.363.327 1.196 1.74 4.64 4.169 3.66 2.574 5.328 3.589 6.053 3.625.254 0 2.356-1.378 4.712-3.081m-3.335-9.425c4.604-.906 8.663-1.812 9.098-1.993.653-.254.834-.798 1.124-3.335.218-1.631.326-3.045.29-3.081-.109-.181-23.561 4.712-23.851 4.93-.254.253.29 5.255.652 5.835.11.182 1.124.073 2.284-.217 1.124-.254 5.836-1.233 10.403-2.139m-7.43-6.887c8.119-1.595 17.906-3.806 18.16-4.096.145-.145.362-1.595.507-3.226l.254-2.936-5.22 1.087c-2.827.58-8.59 1.776-12.723 2.683-4.132.87-7.648 1.595-7.757 1.595-.254 0 .217 5.437.471 5.872.109.181.471.254.798.145.362-.109 2.827-.616 5.51-1.124m4.893-9.46c5.183-1.088 10.584-2.212 11.998-2.538l2.573-.544.29-2.9c.11-1.63.145-3.008.073-3.117-.109-.072-1.486.073-3.045.399-3.915.761-22.582 4.53-23.561 4.748-.906.218-1.051 1.341-.616 4.676l.254 1.74 1.304-.254c.725-.108 5.546-1.087 10.73-2.21m1.522-8.664c7.322-1.486 13.412-2.864 13.557-3.008.29-.29 1.015-5.981.834-6.199-.11-.109-2.538.363-5.437.979-2.864.652-9.497 2.03-14.645 3.045l-9.424 1.885.181 1.812c.399 3.552.58 4.205 1.087 4.205.29 0 6.489-1.233 13.847-2.719m-7.793-6.67c3.66-.797 9.098-1.957 12.07-2.61 3.01-.616 5.764-1.268 6.163-1.413.398-.181-5.365-.29-12.832-.326l-13.52-.037.253 2.61c.29 2.828.399 3.19.906 3.19.218 0 3.335-.652 6.96-1.413m26.207-7.72c.145-.87.181-2.212.109-3.009l-.109-1.45-19.102-.109-19.14-.072v6.162h38.025zm4.713-7.612c1.45-1.668 6.742-16.457 8.047-22.402.978-4.603.906-13.049-.146-16.492-2.102-6.67-6.814-9.969-14.354-9.969-2.356 0-3.66.29-8.337 1.776-3.008.98-6.56 1.885-7.866 1.994-2.464.254-2.247.326-13.774-3.117-3.48-1.015-8.482-.798-11.345.543-1.16.508-2.538 1.305-3.082 1.704-5.4 4.241-7.068 14.064-4.277 25.736 1.414 6.054 6.561 19.465 7.866 20.553.29.217.906.471 1.414.544.507.072 10.838.108 22.945.108H83.28z"/><path fill="#fff" d="M6.254 38.555C2.194 36.598.563 35.619.635 35.22c.073-.362.508-.544 1.196-.507 1.088.036 10.476 4.204 11.346 5.002.58.58.181 1.667-.616 1.667-.326-.036-3.154-1.268-6.307-2.827M107.241 40.839c-.943-.69-.472-1.052 4.132-3.154 6.307-2.9 7.431-3.299 7.757-2.755.181.254.326.58.326.725 0 .326-3.045 1.885-7.902 4.06-3.19 1.413-3.733 1.558-4.313 1.124M17.527 31.922c-.29-.472-1.523-2.43-2.719-4.314-3.516-5.618-4.204-7.43-2.61-7.177.58.072 1.414 1.232 3.154 4.277 1.269 2.284 2.682 4.785 3.117 5.51.725 1.269.725 1.377.145 1.957-.543.544-.616.544-1.087-.253M101.441 31.704c-.145-.326.036-1.015.326-1.522.326-.508 1.414-2.393 2.465-4.205 2.501-4.35 3.516-5.655 4.169-5.401.29.145.543.435.543.689 0 .543-2.283 4.748-4.567 8.337-1.704 2.718-2.501 3.262-2.936 2.102"/></svg>