<svg xmlns="http://www.w3.org/2000/svg" fill="none" viewBox="0 0 120 120"><path fill="#fff" d="M86.894 96.427c-4.59 2.99-11.649 5.314-26.72 5.467-17.717.179-24.09-3.276-27.283-5.63-1.05-.773-1.809-3.194-2.8-4.738-1.684-2.625-6.128-10.064-7.31-11.012-1.96-1.578-4.36-1.401-6.008.439-.41.453-1.168 1.755-2.152 3.687-2.675 5.28-4.43 7.926-6.815 10.205-1.55 1.493-2.661 2.264-4.501 3.156-1.699.835-2.357.934-2.895.496-.29-.22-.41-.44-.41-.793 0-.602.425-.998 1.401-1.316 1.126-.368 3-1.508 4.268-2.605 2.328-1.988 4.154-4.635 6.773-9.802 1.825-3.609 2.547-4.677 3.786-5.583 2.922-2.152 6.744-1.48 9.256 1.635 1.416 1.769 1.727 2.264 6.448 10.12l.304.51.085-.95c.148-1.52.148-6.786-.014-8.69-.51-6.185-1.607-10.955-4.537-19.688-3.425-10.226-4.048-13.15-4.196-19.483-.135-5.69.523-9.349 2.441-13.369 4.303-9.08 13.135-12.505 23.397-9.08.85.276 2.576.878 3.829 1.33 2.81.999 3.63 1.197 5.293 1.388 2.576.29 4.65-.1 9.257-1.77 5.074-1.825 6.858-2.207 10.283-2.207 4.827.014 8.422 1.387 11.628 4.458 1.783 1.713 3.014 3.376 4.083 5.584 1.876 3.843 2.619 7.46 2.619 12.668-.014 6.334-.906 10.665-4.155 20.255-2.852 8.435-4.02 13.51-4.522 19.73-.163 2.017-.177 7.31-.014 8.832l.085.935 1.153-1.96c4.14-6.95 4.742-7.842 6.186-9.286 2.866-2.852 6.475-3 9.285-.368.906.85 1.564 1.904 3.1 4.975 2.137 4.254 3.552 6.476 5.364 8.436 1.387 1.48 2.895 2.619 4.487 3.376.778.368 1.656.778 1.932.906.644.318.892 1.012.524 1.564-.482.729-1.303.644-3.348-.368-1.712-.864-3.248-1.975-4.706-3.44-2.166-2.18-3.645-4.373-5.881-8.775-1.755-3.468-2.314-4.36-3.192-5.16-2.073-1.903-4.883-1.287-6.95 1.508-1.139 1.55-2.137 3.128-4.975 7.912-2.795 4.706-2.632 5.686-3.883 6.501m-52.535-1.773c-.032.526 12.106 5.257 25.761 5.007 12.092-.222 25.607-3.985 25.569-5.177-.32-10.071-.34-15.124.729-20.566.163-.835.29-1.536.29-1.55s-.602.368-1.33.85c-2.782 1.84-5.428 3.276-7.856 4.239-6.51 2.618-14.083 3.772-21.047 3.191-8.252-.672-15.3-3.015-21.394-7.077-.906-.601-1.684-1.083-1.713-1.04-.028.028.071.743.234 1.592 1.069 5.541 1.387 10.142.757 20.53m31.882-16.617c7.856-1.196 13.716-3.595 19.717-8.033l1.493-1.11.29-1.027c.163-.559 1.182-3.73 2.265-7.035 2.222-6.8 2.987-9.547 3.51-12.71.878-5.308.892-9.285.057-13.531-.934-4.692-3.454-8.995-6.695-11.394-2.767-2.06-6.773-3.086-10.396-2.661-2.796.304-3.128.41-9.724 2.689-2.987 1.026-3.977 1.196-6.872 1.182-2.895 0-3.786-.191-7.75-1.592-3.595-1.289-4.84-1.657-6.475-1.975-5.803-1.125-10.573.149-14.19 3.786-5.838 5.867-7.253 16.03-3.962 28.372.233.92 1.344 4.402 2.455 7.75s2.138 6.525 2.28 7.063l.26.997 1.331.998c2.81 2.123 4.55 3.192 7.445 4.565 4.36 2.074 9.52 3.44 14.876 3.949 2.329.22 7.828.056 10.092-.29z"/></svg>