<svg xmlns="http://www.w3.org/2000/svg" fill="none" viewBox="0 0 120 120"><g fill="#fff" clip-path="url(#a)"><path d="M42.033 106.422c-2.354-1.467-4.434-4.809-6.14-9.891-2.115-6.345-2.32-8.153-2.353-20.159-.035-9.55-.103-10.88-.648-11.835-.683-1.297-2.388-1.91-5.526-1.945-2.695 0-4.161.785-7.947 4.332-3.991 3.718-5.867 5.253-8.391 6.856C7.446 76.1.658 77.566.113 76.168c-.136-.307-.136-.649-.068-.717.102-.102 1.432-.375 3.001-.648 4.912-.852 8.528-3.001 13.917-8.186 2.83-2.763 5.56-4.775 7.094-5.287.785-.273 2.388-.34 4.571-.204l3.343.204-.546-1.262c-1.399-3.24-2.934-7.538-3.786-10.573-.887-3.07-.955-3.752-.955-9.449.034-5.832.068-6.276.955-8.663 2.183-5.97 6.208-9.79 11.188-10.574 2.899-.478 4.502-.239 10.369 1.398 5.969 1.672 7.913 1.638 13.984-.272 3.616-1.126 4.503-1.262 7.675-1.296 3.342 0 3.752.068 5.798 1.057 4.264 2.046 7.197 5.764 8.596 10.88.955 3.514 1.023 10.71.17 14.292-.546 2.354-2.353 7.88-4.843 14.837-1.467 4.162-1.74 6.652-1.365 13.064.273 4.98.205 4.912 3.24 3.274 2.695-1.432 4.571-3.444 7.163-7.742 3.343-5.526 3.957-5.56 9.38-.955 3.684 3.104 6.788 4.74 10.472 5.56 2.66.545 3.479 1.125 2.728 1.875-.511.512-5.15-.511-7.776-1.739-2.661-1.262-4.673-2.626-7.334-5.014-3.308-2.933-3.786-2.831-5.935 1.228-2.32 4.468-5.764 7.743-9.755 9.278l-2.012.784v2.66c0 6.89-3.48 17.26-6.993 20.909-2.523 2.627-5.696 2.32-7.128-.682-.716-1.535-1.365-4.639-2.251-11.29-1.638-12.04-3.82-17.566-6.822-17.566-1.228 0-2.149 1.091-3.377 3.99-1.364 3.173-1.774 5.083-3.274 14.497-1.194 7.777-2.047 10.983-3.172 11.938-.512.443-2.559 1.296-3.104 1.296-.103 0-.648-.273-1.228-.648m2.865-1.978c1.023-1.058 1.91-4.605 2.933-12.04 1.296-9.04 2.524-13.508 4.707-16.68 1.262-1.842 3.275-2.865 4.707-2.353 1.194.409 3.104 2.49 4.093 4.4.955 1.91 2.49 8.015 3.172 12.756.307 2.081.819 5.492 1.126 7.64.682 4.503 1.808 6.857 3.309 6.857 2.796 0 6.992-8.8 8.288-17.362.477-3.138.477-4.639.136-11.153-.34-7.095-.272-8.766.478-12.28.102-.545-.034-.784-.512-.92-.886-.24-.886-1.467-.034-2.013.512-.307.58-.58.341-1.364-.511-1.808.273-2.593 1.194-1.228.512.716.546.716 1.16-.785 1.194-2.796 3.07-8.63 3.684-11.392.682-3.343.682-8.561 0-12.28-.99-5.115-3.82-9.072-7.777-10.914-3.48-1.603-6.208-1.467-12.552.614-2.9.955-3.684 1.057-7.334 1.057-3.752.034-4.4-.068-7.674-1.125-3.036-.99-4.093-1.16-6.993-1.194-3.035-.034-3.615.068-5.286.887-2.354 1.16-3.684 2.524-5.253 5.389-1.842 3.377-2.388 5.935-2.388 11.085 0 6.174 1.501 12.655 4.162 17.737.852 1.637.92 1.671 1.023.75.068-.682.273-.92.682-.852.614.136.682.955.205 2.762-.17.75-.069 1.058.511 1.467.853.614 1.024 2.013.17 1.706-.51-.205-.545-.035-.272 1.228.17.818.307 5.934.341 11.358.034 11.085.307 13.336 2.388 19.612 1.398 4.196 3.104 7.436 4.604 8.664 1.296 1.091 1.501 1.091 2.66-.034"/><path d="M54.346 68.357c-.819-.853-.307-1.467 1.364-1.603 1.672-.137 2.524.17 2.524.92 0 1.126-2.933 1.638-3.888.683M49.537 68.22c-.546-.102-1.024-.409-.99-.648.103-1.432.103-1.432 1.774-1.228 1.91.273 2.251.512 1.944 1.467-.238.75-.784.819-2.728.41M60.11 68.186c-.511-.853.205-1.637 1.706-1.876.852-.102 1.671-.102 1.876 0 .477.273.443 1.296-.068 1.808-.512.511-3.207.546-3.514.068M43.602 66.992c-.785-.375-1.058-.682-.921-1.057.102-.307.204-.614.204-.682 0-.273 1.604-.137 2.695.239 1.126.409 1.33.92.648 1.603-.546.545-1.194.511-2.626-.103M65.772 66.856c-.443-.819-.034-1.16 1.91-1.637 2.218-.546 3.07.784 1.126 1.773-1.364.717-2.626.648-3.036-.136M39.134 65.764c-1.945-.784-2.525-2.353-.887-2.353 1.125 0 3.001 1.296 2.865 1.978-.137.682-.853.819-1.979.375M71.707 65.662c-.852-.614-.443-1.5 1.024-2.08 1.603-.683 2.114-.649 2.387.204s.034 1.126-1.569 1.808c-1.023.443-1.33.443-1.842.068M76.04 56.01c-.956-1.4-1.16-2.184-.717-2.695.648-.785 1.16-.546 1.944.852.887 1.57.955 2.286.205 2.558-.75.273-.717.307-1.433-.716M34.495 55.873c-.58-.648-.58-.716.034-1.876.784-1.5 1.296-1.91 2.012-1.637.717.273.682.887-.136 2.524-.853 1.705-1.126 1.842-1.91.989M72.833 50.552c-1.091-1.433-1.194-1.978-.375-2.285.682-.273 2.83 1.67 2.83 2.558 0 .511-.681 1.023-1.295.989-.137-.034-.648-.58-1.16-1.262M36.746 50.995c-.307-.409-.137-.784 1.057-2.046 1.603-1.74 1.842-1.842 2.354-.921.273.511.102.92-.785 2.046-1.16 1.433-1.944 1.706-2.626.921M40.873 47.243c-.614-.75.068-1.773 1.706-2.626 1.125-.546 1.466-.614 1.875-.273.444.341.307.648-.955 1.91-1.535 1.57-2.012 1.74-2.626.99M68.638 46.63c-.887-.785-1.16-1.297-1.024-1.74.341-.785.785-.717 2.388.375 1.535 1.057 1.842 2.217.614 2.388-.478.068-1.194-.307-1.978-1.024M64.306 44.378c-1.365-.614-1.74-1.125-1.433-1.944.273-.682.921-.648 2.524.17 1.501.75 1.501.785 1.023 1.74-.409.75-.443.75-2.114.034M46.024 43.628c-.342-.58-.307-.75.443-1.228.443-.307 1.33-.58 1.944-.614.887-.034 1.16.102 1.228.682s-.205.819-1.364 1.262c-1.842.716-1.74.716-2.251-.102M58.678 42.843c-1.57-.375-1.978-.887-1.33-1.773.375-.546.614-.546 2.183-.17 1.841.443 2.183.92 1.193 1.773-.477.375-.92.41-2.046.17M51.48 41.99c-.204-.477-.374-.92-.306-.955.034-.068.716-.238 1.467-.409 1.5-.34 2.66-.068 2.967.717.273.75-.375 1.16-2.149 1.33-1.432.17-1.603.102-1.978-.682M83.816 60.75c0-.375.341-1.125.784-1.67.444-.512 2.081-2.798 3.65-5.049 1.535-2.251 3.547-4.946 4.434-5.969 2.524-2.968 9.892-12.995 9.892-13.507 0-.239-.137-.546-.341-.648-.171-.102.955-1.774 2.49-3.684a204 204 0 0 0 4.502-5.696c4.946-6.549 9.175-11.597 9.755-11.597 1.126 0 .716.887-1.978 4.434-1.467 1.91-3.002 3.957-3.445 4.537-2.354 3.274-5.901 7.776-7.47 9.448-.989 1.057-1.808 2.08-1.808 2.285 0 .443 3.684 3.513 4.23 3.513.818-.034 1.296-.58 6.821-8.015.819-1.126 1.808-2.354 2.183-2.73.341-.374.819-1.022 1.058-1.432.477-.955.921-.989 1.364-.136.307.546-.409 1.637-4.4 6.924-4.843 6.447-5.935 7.572-7.299 7.368-.546-.069-1.262.34-2.217 1.193l-1.399 1.262.205 2.32c.273 2.83-.102 3.82-2.797 7.435-2.626 3.582-4.434 5.492-6.071 6.447-1.535.887-8.391 3.07-10.676 3.41-1.33.206-1.467.171-1.467-.443m6.003-2.49c1.296-.409 3.309-1.193 4.468-1.74 2.183-1.022 3.786-2.694 7.436-7.776 1.33-1.842 1.364-1.91 1.364-4.843v-2.968l3.07-3.138-.989-.852c-1.194-1.058-1.16-1.092-4.571 3.717-1.5 2.115-3.376 4.64-4.195 5.662-2.388 2.934-8.766 11.325-9.312 12.246-.34.58.034.511 2.73-.307"/></g><defs><clipPath id="a"><path fill="#fff" d="M0 0h120v120H0z"/></clipPath></defs></svg>